# The Great Editor v0.0.1
mtllib floor_2.mtl
o floor_2
v -1.6021167886174614 -1.8420621426636037 0
v -1.6021167886174614 -1.8420621426636037 -0.1
v -1.39038550785153 -0.6775400984509806 0
v -1.39038550785153 -0.6775400984509806 -0.1
v -0.6648161046187286 -1.6773543173646899 0
v -0.6648161046187286 -1.6773543173646899 -0.1
v -1.4045176907245054 -2.78077101570306 0
v -1.4045176907245054 -2.78077101570306 -0.1
vt -1.6021167886174614 -1.8420621426636037 0
vt -1.39038550785153 -0.6775400984509806 0
vt -0.6648161046187286 -1.6773543173646899 0
vt -1.4045176907245054 -2.78077101570306 0
vn 0 0 1
vn 0 0 -1
usemtl floor_2
s off
f 1/1/1 5/3/1 3/2/1
f 4/2/2 6/3/2 2/1/2
f 1/1/1 7/4/1 5/3/1
f 6/3/2 8/4/2 2/1/2
